<mxfile host="app.diagrams.net" modified="2024-08-27T11:57:29.224Z" agent="Mozilla/5.0 (Windows NT 10.0; Win64; x64) AppleWebKit/537.36 (KHTML, like Gecko) Chrome/127.0.0.0 Safari/537.36" etag="6TtGlBeHhOZge_4T7UEk" version="24.6.3" type="github">
  <diagram name="第 1 页" id="_J3mJ0QclJQ1FkhA-keb">
    <mxGraphModel dx="2143" dy="893" grid="0" gridSize="10" guides="1" tooltips="1" connect="1" arrows="1" fold="1" page="0" pageScale="1" pageWidth="827" pageHeight="1169" math="0" shadow="0">
      <root>
        <mxCell id="0" />
        <mxCell id="1" parent="0" />
        <mxCell id="t_E1C5YA0bgo7-WvDmap-12" style="rounded=0;orthogonalLoop=1;jettySize=auto;html=1;entryX=0.5;entryY=0;entryDx=0;entryDy=0;dashed=1;dashPattern=8 8;strokeWidth=2;" edge="1" parent="1" source="t_E1C5YA0bgo7-WvDmap-1" target="t_E1C5YA0bgo7-WvDmap-10">
          <mxGeometry relative="1" as="geometry" />
        </mxCell>
        <mxCell id="t_E1C5YA0bgo7-WvDmap-13" style="rounded=0;orthogonalLoop=1;jettySize=auto;html=1;startArrow=classic;startFill=1;endArrow=none;endFill=0;dashed=1;dashPattern=8 8;strokeWidth=2;" edge="1" parent="1" source="t_E1C5YA0bgo7-WvDmap-1" target="t_E1C5YA0bgo7-WvDmap-9">
          <mxGeometry relative="1" as="geometry" />
        </mxCell>
        <mxCell id="t_E1C5YA0bgo7-WvDmap-1" value="节点记忆模块" style="rounded=1;whiteSpace=wrap;html=1;fontFamily=仿宋;fontSize=16;fontStyle=1;strokeWidth=2;" vertex="1" parent="1">
          <mxGeometry x="-135" y="183" width="120" height="60" as="geometry" />
        </mxCell>
        <mxCell id="t_E1C5YA0bgo7-WvDmap-15" style="edgeStyle=none;shape=connector;rounded=0;orthogonalLoop=1;jettySize=auto;html=1;strokeColor=default;strokeWidth=2;align=center;verticalAlign=middle;fontFamily=Helvetica;fontSize=11;fontColor=default;labelBackgroundColor=default;endArrow=classic;" edge="1" parent="1" source="t_E1C5YA0bgo7-WvDmap-2" target="t_E1C5YA0bgo7-WvDmap-9">
          <mxGeometry relative="1" as="geometry" />
        </mxCell>
        <mxCell id="t_E1C5YA0bgo7-WvDmap-2" value="状态更新模块" style="rounded=1;whiteSpace=wrap;html=1;fontFamily=仿宋;fontSize=16;fontStyle=1;strokeWidth=2;" vertex="1" parent="1">
          <mxGeometry x="-135" y="346" width="120" height="60" as="geometry" />
        </mxCell>
        <mxCell id="t_E1C5YA0bgo7-WvDmap-17" style="edgeStyle=none;shape=connector;rounded=0;orthogonalLoop=1;jettySize=auto;html=1;entryX=0;entryY=0.5;entryDx=0;entryDy=0;strokeColor=default;strokeWidth=2;align=center;verticalAlign=middle;fontFamily=Helvetica;fontSize=11;fontColor=default;labelBackgroundColor=default;endArrow=classic;" edge="1" parent="1" source="t_E1C5YA0bgo7-WvDmap-3" target="t_E1C5YA0bgo7-WvDmap-7">
          <mxGeometry relative="1" as="geometry" />
        </mxCell>
        <mxCell id="t_E1C5YA0bgo7-WvDmap-3" value="信息传递模块" style="rounded=1;whiteSpace=wrap;html=1;fontFamily=仿宋;fontSize=16;fontStyle=1;strokeWidth=2;" vertex="1" parent="1">
          <mxGeometry x="-379" y="634" width="120" height="60" as="geometry" />
        </mxCell>
        <mxCell id="t_E1C5YA0bgo7-WvDmap-20" style="edgeStyle=none;shape=connector;rounded=0;orthogonalLoop=1;jettySize=auto;html=1;strokeColor=default;strokeWidth=2;align=center;verticalAlign=middle;fontFamily=Helvetica;fontSize=11;fontColor=default;labelBackgroundColor=default;endArrow=classic;" edge="1" parent="1" source="t_E1C5YA0bgo7-WvDmap-4" target="t_E1C5YA0bgo7-WvDmap-8">
          <mxGeometry relative="1" as="geometry" />
        </mxCell>
        <mxCell id="t_E1C5YA0bgo7-WvDmap-4" value="聚合" style="rounded=1;whiteSpace=wrap;html=1;fontFamily=仿宋;fontSize=16;fontStyle=1;strokeWidth=2;aspect=fixed;" vertex="1" parent="1">
          <mxGeometry x="-221" y="504" width="80" height="40" as="geometry" />
        </mxCell>
        <mxCell id="t_E1C5YA0bgo7-WvDmap-24" style="edgeStyle=none;shape=connector;rounded=0;orthogonalLoop=1;jettySize=auto;html=1;strokeColor=default;strokeWidth=2;align=center;verticalAlign=middle;fontFamily=Helvetica;fontSize=11;fontColor=default;labelBackgroundColor=default;endArrow=classic;" edge="1" parent="1" source="t_E1C5YA0bgo7-WvDmap-5" target="t_E1C5YA0bgo7-WvDmap-23">
          <mxGeometry relative="1" as="geometry" />
        </mxCell>
        <mxCell id="t_E1C5YA0bgo7-WvDmap-5" value="嵌入模块" style="rounded=1;whiteSpace=wrap;html=1;fontFamily=仿宋;fontSize=16;fontStyle=1;strokeWidth=2;" vertex="1" parent="1">
          <mxGeometry x="106" y="494" width="120" height="60" as="geometry" />
        </mxCell>
        <mxCell id="t_E1C5YA0bgo7-WvDmap-28" style="edgeStyle=none;shape=connector;rounded=0;orthogonalLoop=1;jettySize=auto;html=1;entryX=1;entryY=0.5;entryDx=0;entryDy=0;strokeColor=default;strokeWidth=2;align=center;verticalAlign=middle;fontFamily=Helvetica;fontSize=11;fontColor=default;labelBackgroundColor=default;endArrow=classic;" edge="1" parent="1" source="t_E1C5YA0bgo7-WvDmap-6" target="t_E1C5YA0bgo7-WvDmap-26">
          <mxGeometry relative="1" as="geometry" />
        </mxCell>
        <mxCell id="t_E1C5YA0bgo7-WvDmap-6" value="解码" style="rounded=1;whiteSpace=wrap;html=1;fontFamily=仿宋;fontSize=16;fontStyle=1;strokeWidth=2;aspect=fixed;" vertex="1" parent="1">
          <mxGeometry x="126" y="769" width="80" height="40" as="geometry" />
        </mxCell>
        <mxCell id="t_E1C5YA0bgo7-WvDmap-18" style="edgeStyle=none;shape=connector;rounded=0;orthogonalLoop=1;jettySize=auto;html=1;strokeColor=default;strokeWidth=2;align=center;verticalAlign=middle;fontFamily=Helvetica;fontSize=11;fontColor=default;labelBackgroundColor=default;endArrow=classic;" edge="1" parent="1" source="t_E1C5YA0bgo7-WvDmap-7" target="t_E1C5YA0bgo7-WvDmap-4">
          <mxGeometry relative="1" as="geometry" />
        </mxCell>
        <mxCell id="t_E1C5YA0bgo7-WvDmap-7" value="m(t)" style="text;html=1;align=center;verticalAlign=middle;whiteSpace=wrap;rounded=0;fontFamily=Times New Roman;fontSize=16;fontStyle=1" vertex="1" parent="1">
          <mxGeometry x="-211" y="649" width="60" height="30" as="geometry" />
        </mxCell>
        <mxCell id="t_E1C5YA0bgo7-WvDmap-21" style="edgeStyle=none;shape=connector;rounded=0;orthogonalLoop=1;jettySize=auto;html=1;strokeColor=default;strokeWidth=2;align=center;verticalAlign=middle;fontFamily=Helvetica;fontSize=11;fontColor=default;labelBackgroundColor=default;endArrow=classic;" edge="1" parent="1" source="t_E1C5YA0bgo7-WvDmap-8" target="t_E1C5YA0bgo7-WvDmap-2">
          <mxGeometry relative="1" as="geometry" />
        </mxCell>
        <mxCell id="t_E1C5YA0bgo7-WvDmap-8" value="m&lt;span style=&quot;font-size: 16px;&quot;&gt;&#39;&lt;/span&gt;(t)" style="text;html=1;align=center;verticalAlign=middle;whiteSpace=wrap;rounded=0;fontFamily=Times New Roman;fontSize=16;fontStyle=1" vertex="1" parent="1">
          <mxGeometry x="-105" y="509" width="60" height="30" as="geometry" />
        </mxCell>
        <mxCell id="t_E1C5YA0bgo7-WvDmap-22" style="edgeStyle=none;shape=connector;rounded=0;orthogonalLoop=1;jettySize=auto;html=1;entryX=0.5;entryY=0;entryDx=0;entryDy=0;strokeColor=default;strokeWidth=2;align=center;verticalAlign=middle;fontFamily=Helvetica;fontSize=11;fontColor=default;labelBackgroundColor=default;endArrow=classic;" edge="1" parent="1" source="t_E1C5YA0bgo7-WvDmap-9" target="t_E1C5YA0bgo7-WvDmap-5">
          <mxGeometry relative="1" as="geometry" />
        </mxCell>
        <mxCell id="t_E1C5YA0bgo7-WvDmap-9" value="s(t)" style="text;html=1;align=center;verticalAlign=middle;whiteSpace=wrap;rounded=0;fontFamily=Times New Roman;fontSize=16;fontStyle=1" vertex="1" parent="1">
          <mxGeometry x="136" y="363" width="60" height="30" as="geometry" />
        </mxCell>
        <mxCell id="t_E1C5YA0bgo7-WvDmap-14" style="edgeStyle=none;shape=connector;rounded=0;orthogonalLoop=1;jettySize=auto;html=1;strokeColor=default;align=center;verticalAlign=middle;fontFamily=Helvetica;fontSize=11;fontColor=default;labelBackgroundColor=default;endArrow=classic;strokeWidth=2;" edge="1" parent="1" source="t_E1C5YA0bgo7-WvDmap-10" target="t_E1C5YA0bgo7-WvDmap-2">
          <mxGeometry relative="1" as="geometry" />
        </mxCell>
        <mxCell id="t_E1C5YA0bgo7-WvDmap-16" style="edgeStyle=none;shape=connector;rounded=0;orthogonalLoop=1;jettySize=auto;html=1;entryX=0.5;entryY=0;entryDx=0;entryDy=0;strokeColor=default;strokeWidth=2;align=center;verticalAlign=middle;fontFamily=Helvetica;fontSize=11;fontColor=default;labelBackgroundColor=default;endArrow=classic;" edge="1" parent="1" source="t_E1C5YA0bgo7-WvDmap-10" target="t_E1C5YA0bgo7-WvDmap-3">
          <mxGeometry relative="1" as="geometry" />
        </mxCell>
        <mxCell id="t_E1C5YA0bgo7-WvDmap-10" value="s&#39;(t)" style="text;html=1;align=center;verticalAlign=middle;whiteSpace=wrap;rounded=0;fontFamily=Times New Roman;fontSize=16;fontStyle=1" vertex="1" parent="1">
          <mxGeometry x="-349" y="363" width="60" height="30" as="geometry" />
        </mxCell>
        <mxCell id="t_E1C5YA0bgo7-WvDmap-25" style="edgeStyle=none;shape=connector;rounded=0;orthogonalLoop=1;jettySize=auto;html=1;entryX=0.5;entryY=0;entryDx=0;entryDy=0;strokeColor=default;strokeWidth=2;align=center;verticalAlign=middle;fontFamily=Helvetica;fontSize=11;fontColor=default;labelBackgroundColor=default;endArrow=classic;" edge="1" parent="1" source="t_E1C5YA0bgo7-WvDmap-23" target="t_E1C5YA0bgo7-WvDmap-6">
          <mxGeometry relative="1" as="geometry" />
        </mxCell>
        <mxCell id="t_E1C5YA0bgo7-WvDmap-23" value="emb(t)" style="text;html=1;align=center;verticalAlign=middle;whiteSpace=wrap;rounded=0;fontFamily=Times New Roman;fontSize=16;fontStyle=1" vertex="1" parent="1">
          <mxGeometry x="136" y="649" width="60" height="30" as="geometry" />
        </mxCell>
        <mxCell id="t_E1C5YA0bgo7-WvDmap-29" style="edgeStyle=none;shape=connector;rounded=0;orthogonalLoop=1;jettySize=auto;html=1;entryX=1;entryY=0.5;entryDx=0;entryDy=0;strokeColor=default;strokeWidth=2;align=center;verticalAlign=middle;fontFamily=Helvetica;fontSize=11;fontColor=default;labelBackgroundColor=default;endArrow=classic;" edge="1" parent="1" source="t_E1C5YA0bgo7-WvDmap-26" target="t_E1C5YA0bgo7-WvDmap-27">
          <mxGeometry relative="1" as="geometry" />
        </mxCell>
        <mxCell id="t_E1C5YA0bgo7-WvDmap-26" value="预测两个节点之间存在边的概率" style="text;html=1;align=center;verticalAlign=middle;whiteSpace=wrap;rounded=0;fontFamily=仿宋;fontSize=16;fontColor=default;labelBackgroundColor=default;fontStyle=1" vertex="1" parent="1">
          <mxGeometry x="-138" y="757" width="126" height="64" as="geometry" />
        </mxCell>
        <mxCell id="t_E1C5YA0bgo7-WvDmap-27" value="损失函数" style="text;html=1;align=center;verticalAlign=middle;whiteSpace=wrap;rounded=0;fontFamily=仿宋;fontSize=16;fontColor=default;labelBackgroundColor=default;fontStyle=1" vertex="1" parent="1">
          <mxGeometry x="-340.5" y="774" width="43" height="30" as="geometry" />
        </mxCell>
        <mxCell id="t_E1C5YA0bgo7-WvDmap-38" value="" style="group" vertex="1" connectable="0" parent="1">
          <mxGeometry x="-263" y="850" width="396" height="48" as="geometry" />
        </mxCell>
        <mxCell id="t_E1C5YA0bgo7-WvDmap-30" value="" style="rounded=0;whiteSpace=wrap;html=1;fontFamily=Helvetica;fontSize=11;fontColor=default;labelBackgroundColor=default;" vertex="1" parent="t_E1C5YA0bgo7-WvDmap-38">
          <mxGeometry width="396" height="48" as="geometry" />
        </mxCell>
        <mxCell id="t_E1C5YA0bgo7-WvDmap-32" style="edgeStyle=none;shape=connector;rounded=0;orthogonalLoop=1;jettySize=auto;html=1;entryX=0;entryY=0.5;entryDx=0;entryDy=0;strokeColor=default;strokeWidth=2;align=center;verticalAlign=middle;fontFamily=Helvetica;fontSize=11;fontColor=default;labelBackgroundColor=default;endArrow=classic;" edge="1" parent="t_E1C5YA0bgo7-WvDmap-38">
          <mxGeometry relative="1" as="geometry">
            <mxPoint x="32" y="26" as="sourcePoint" />
            <mxPoint x="80" y="26" as="targetPoint" />
          </mxGeometry>
        </mxCell>
        <mxCell id="t_E1C5YA0bgo7-WvDmap-34" value="梯度更新" style="text;html=1;align=center;verticalAlign=middle;whiteSpace=wrap;rounded=0;fontFamily=仿宋;fontSize=16;fontColor=default;labelBackgroundColor=default;fontStyle=1" vertex="1" parent="t_E1C5YA0bgo7-WvDmap-38">
          <mxGeometry x="81" y="9" width="85" height="30" as="geometry" />
        </mxCell>
        <mxCell id="t_E1C5YA0bgo7-WvDmap-35" value="非梯度更新" style="text;html=1;align=center;verticalAlign=middle;whiteSpace=wrap;rounded=0;fontFamily=仿宋;fontSize=16;fontColor=default;labelBackgroundColor=default;fontStyle=1" vertex="1" parent="t_E1C5YA0bgo7-WvDmap-38">
          <mxGeometry x="278" y="9" width="85" height="30" as="geometry" />
        </mxCell>
        <mxCell id="t_E1C5YA0bgo7-WvDmap-37" style="edgeStyle=none;shape=connector;rounded=0;orthogonalLoop=1;jettySize=auto;html=1;entryX=0;entryY=0.5;entryDx=0;entryDy=0;strokeColor=default;strokeWidth=2;align=center;verticalAlign=middle;fontFamily=Helvetica;fontSize=11;fontColor=default;labelBackgroundColor=default;endArrow=classic;dashed=1;dashPattern=8 8;" edge="1" parent="t_E1C5YA0bgo7-WvDmap-38">
          <mxGeometry relative="1" as="geometry">
            <mxPoint x="221" y="26" as="sourcePoint" />
            <mxPoint x="269" y="26" as="targetPoint" />
          </mxGeometry>
        </mxCell>
      </root>
    </mxGraphModel>
  </diagram>
</mxfile>
